<mxfile host="app.diagrams.net" modified="2024-04-27T12:58:44.338Z" agent="Mozilla/5.0 (Windows NT 10.0; Win64; x64) AppleWebKit/537.36 (KHTML, like Gecko) Chrome/122.0.0.0 Safari/537.36" etag="Wx_c9qTuOSuGz4W_WgTn" version="24.2.2" type="device">
  <diagram name="Page-1" id="r1jCTrlGhkuGiE3C5sfj">
    <mxGraphModel dx="431" dy="705" grid="1" gridSize="10" guides="1" tooltips="1" connect="1" arrows="1" fold="1" page="1" pageScale="1" pageWidth="850" pageHeight="1100" math="0" shadow="0">
      <root>
        <mxCell id="0" />
        <mxCell id="1" parent="0" />
        <mxCell id="mzTV1rFWOFSmvylBfMz7-30" style="edgeStyle=orthogonalEdgeStyle;rounded=0;orthogonalLoop=1;jettySize=auto;html=1;exitX=1;exitY=0.5;exitDx=0;exitDy=0;entryX=0;entryY=0.5;entryDx=0;entryDy=0;" parent="1" source="mzTV1rFWOFSmvylBfMz7-1" target="mzTV1rFWOFSmvylBfMz7-5" edge="1">
          <mxGeometry relative="1" as="geometry" />
        </mxCell>
        <mxCell id="mzTV1rFWOFSmvylBfMz7-1" value="" style="rounded=0;whiteSpace=wrap;html=1;" parent="1" vertex="1">
          <mxGeometry x="80" y="80" width="120" height="150" as="geometry" />
        </mxCell>
        <mxCell id="mzTV1rFWOFSmvylBfMz7-2" value="" style="endArrow=none;html=1;rounded=0;entryX=0.999;entryY=0.266;entryDx=0;entryDy=0;entryPerimeter=0;" parent="1" edge="1">
          <mxGeometry width="50" height="50" relative="1" as="geometry">
            <mxPoint x="80" y="100.1" as="sourcePoint" />
            <mxPoint x="199.88" y="99.99999999999997" as="targetPoint" />
          </mxGeometry>
        </mxCell>
        <mxCell id="mzTV1rFWOFSmvylBfMz7-3" value="" style="endArrow=none;html=1;rounded=0;entryX=0.999;entryY=0.266;entryDx=0;entryDy=0;entryPerimeter=0;" parent="1" edge="1">
          <mxGeometry width="50" height="50" relative="1" as="geometry">
            <mxPoint x="80" y="140" as="sourcePoint" />
            <mxPoint x="200" y="140" as="targetPoint" />
            <Array as="points">
              <mxPoint x="140" y="140" />
            </Array>
          </mxGeometry>
        </mxCell>
        <mxCell id="mzTV1rFWOFSmvylBfMz7-4" value="&lt;font style=&quot;font-size: 8px;&quot;&gt;Personaje&lt;/font&gt;" style="text;html=1;align=center;verticalAlign=middle;whiteSpace=wrap;rounded=0;" parent="1" vertex="1">
          <mxGeometry x="110" y="80" width="60" height="20" as="geometry" />
        </mxCell>
        <mxCell id="mzTV1rFWOFSmvylBfMz7-5" value="" style="rounded=0;whiteSpace=wrap;html=1;" parent="1" vertex="1">
          <mxGeometry x="320" y="80" width="120" height="150" as="geometry" />
        </mxCell>
        <mxCell id="mzTV1rFWOFSmvylBfMz7-6" value="" style="endArrow=none;html=1;rounded=0;entryX=0.999;entryY=0.266;entryDx=0;entryDy=0;entryPerimeter=0;" parent="1" edge="1">
          <mxGeometry width="50" height="50" relative="1" as="geometry">
            <mxPoint x="320" y="100.1" as="sourcePoint" />
            <mxPoint x="439.88" y="99.99999999999997" as="targetPoint" />
          </mxGeometry>
        </mxCell>
        <mxCell id="mzTV1rFWOFSmvylBfMz7-7" value="" style="endArrow=none;html=1;rounded=0;entryX=0.999;entryY=0.266;entryDx=0;entryDy=0;entryPerimeter=0;" parent="1" edge="1">
          <mxGeometry width="50" height="50" relative="1" as="geometry">
            <mxPoint x="320" y="170" as="sourcePoint" />
            <mxPoint x="440" y="170" as="targetPoint" />
          </mxGeometry>
        </mxCell>
        <mxCell id="mzTV1rFWOFSmvylBfMz7-8" value="&lt;font style=&quot;font-size: 8px;&quot;&gt;Enemigo&lt;/font&gt;" style="text;html=1;align=center;verticalAlign=middle;whiteSpace=wrap;rounded=0;" parent="1" vertex="1">
          <mxGeometry x="350" y="80" width="60" height="20" as="geometry" />
        </mxCell>
        <mxCell id="mzTV1rFWOFSmvylBfMz7-10" value="" style="rounded=0;whiteSpace=wrap;html=1;" parent="1" vertex="1">
          <mxGeometry x="64" y="570" width="120" height="150" as="geometry" />
        </mxCell>
        <mxCell id="mzTV1rFWOFSmvylBfMz7-11" value="" style="endArrow=none;html=1;rounded=0;entryX=0.999;entryY=0.266;entryDx=0;entryDy=0;entryPerimeter=0;" parent="1" edge="1">
          <mxGeometry width="50" height="50" relative="1" as="geometry">
            <mxPoint x="64" y="590.1" as="sourcePoint" />
            <mxPoint x="183.88" y="590" as="targetPoint" />
          </mxGeometry>
        </mxCell>
        <mxCell id="mzTV1rFWOFSmvylBfMz7-12" value="" style="endArrow=none;html=1;rounded=0;entryX=0.999;entryY=0.266;entryDx=0;entryDy=0;entryPerimeter=0;" parent="1" edge="1">
          <mxGeometry width="50" height="50" relative="1" as="geometry">
            <mxPoint x="64" y="690" as="sourcePoint" />
            <mxPoint x="184" y="690" as="targetPoint" />
          </mxGeometry>
        </mxCell>
        <mxCell id="mzTV1rFWOFSmvylBfMz7-34" style="edgeStyle=orthogonalEdgeStyle;rounded=0;orthogonalLoop=1;jettySize=auto;html=1;exitX=0.5;exitY=0;exitDx=0;exitDy=0;entryX=0.5;entryY=1;entryDx=0;entryDy=0;fillColor=#dae8fc;strokeColor=#6c8ebf;" parent="1" source="mzTV1rFWOFSmvylBfMz7-13" target="mzTV1rFWOFSmvylBfMz7-16" edge="1">
          <mxGeometry relative="1" as="geometry" />
        </mxCell>
        <mxCell id="ECPVnl5YzM9LcdXUfcxE-12" style="edgeStyle=orthogonalEdgeStyle;rounded=0;orthogonalLoop=1;jettySize=auto;html=1;exitX=0.5;exitY=0;exitDx=0;exitDy=0;fillColor=#dae8fc;strokeColor=#6c8ebf;" edge="1" parent="1" source="mzTV1rFWOFSmvylBfMz7-13" target="ECPVnl5YzM9LcdXUfcxE-2">
          <mxGeometry relative="1" as="geometry" />
        </mxCell>
        <mxCell id="mzTV1rFWOFSmvylBfMz7-13" value="&lt;font style=&quot;font-size: 8px;&quot;&gt;Objeto&lt;/font&gt;" style="text;html=1;align=center;verticalAlign=middle;whiteSpace=wrap;rounded=0;" parent="1" vertex="1">
          <mxGeometry x="94" y="570" width="60" height="20" as="geometry" />
        </mxCell>
        <mxCell id="mzTV1rFWOFSmvylBfMz7-16" value="" style="rounded=0;whiteSpace=wrap;html=1;" parent="1" vertex="1">
          <mxGeometry x="44.5" y="360" width="160" height="150" as="geometry" />
        </mxCell>
        <mxCell id="mzTV1rFWOFSmvylBfMz7-17" value="" style="endArrow=none;html=1;rounded=0;exitX=-0.001;exitY=0.136;exitDx=0;exitDy=0;exitPerimeter=0;" parent="1" source="mzTV1rFWOFSmvylBfMz7-16" edge="1">
          <mxGeometry width="50" height="50" relative="1" as="geometry">
            <mxPoint x="53.5" y="380.1" as="sourcePoint" />
            <mxPoint x="204.5" y="380" as="targetPoint" />
          </mxGeometry>
        </mxCell>
        <mxCell id="mzTV1rFWOFSmvylBfMz7-18" value="" style="endArrow=none;html=1;rounded=0;entryX=1;entryY=0.5;entryDx=0;entryDy=0;exitX=0;exitY=0.5;exitDx=0;exitDy=0;" parent="1" source="mzTV1rFWOFSmvylBfMz7-16" target="mzTV1rFWOFSmvylBfMz7-16" edge="1">
          <mxGeometry width="50" height="50" relative="1" as="geometry">
            <mxPoint x="54.5" y="434.8" as="sourcePoint" />
            <mxPoint x="174.5" y="434.8" as="targetPoint" />
          </mxGeometry>
        </mxCell>
        <mxCell id="mzTV1rFWOFSmvylBfMz7-19" value="&lt;font style=&quot;font-size: 8px;&quot;&gt;Objeto mueble&lt;/font&gt;" style="text;html=1;align=center;verticalAlign=middle;whiteSpace=wrap;rounded=0;" parent="1" vertex="1">
          <mxGeometry x="94" y="360" width="60" height="20" as="geometry" />
        </mxCell>
        <mxCell id="mzTV1rFWOFSmvylBfMz7-21" value="&lt;br&gt;&lt;div&gt;&lt;font style=&quot;font-size: 8px;&quot;&gt;-numeroVidas: int&lt;/font&gt;&lt;/div&gt;" style="text;html=1;align=center;verticalAlign=middle;whiteSpace=wrap;rounded=0;" parent="1" vertex="1">
          <mxGeometry x="95" y="105" width="90" height="20" as="geometry" />
        </mxCell>
        <mxCell id="mzTV1rFWOFSmvylBfMz7-23" value="&lt;font style=&quot;font-size: 8px;&quot;&gt;-posX: int&lt;/font&gt;&lt;div&gt;&lt;font style=&quot;font-size: 8px;&quot;&gt;-posY: int&lt;/font&gt;&lt;/div&gt;" style="text;html=1;align=center;verticalAlign=middle;whiteSpace=wrap;rounded=0;" parent="1" vertex="1">
          <mxGeometry x="94" y="610" width="60" height="20" as="geometry" />
        </mxCell>
        <mxCell id="mzTV1rFWOFSmvylBfMz7-25" value="&lt;span style=&quot;font-size: 8px;&quot;&gt;-estaCogido: bool&lt;/span&gt;" style="text;html=1;align=center;verticalAlign=middle;whiteSpace=wrap;rounded=0;" parent="1" vertex="1">
          <mxGeometry x="74" y="390" width="100" height="20" as="geometry" />
        </mxCell>
        <mxCell id="mzTV1rFWOFSmvylBfMz7-27" value="&lt;div&gt;&lt;span style=&quot;font-size: 8px;&quot;&gt;+Mover(): void&lt;/span&gt;&lt;/div&gt;&lt;div&gt;&lt;span style=&quot;font-size: 8px;&quot;&gt;+Atacar(): void&lt;/span&gt;&lt;/div&gt;&lt;div&gt;&lt;span style=&quot;font-size: 8px;&quot;&gt;+Coger(ObjetoUsable): void&lt;/span&gt;&lt;/div&gt;&lt;div&gt;&lt;span style=&quot;font-size: 8px;&quot;&gt;+Dejar(ObjetoUsable): void&lt;/span&gt;&lt;/div&gt;&lt;div&gt;&lt;span style=&quot;font-size: 8px;&quot;&gt;+Usar(ObjetoUsable): void&lt;/span&gt;&lt;/div&gt;" style="text;html=1;align=center;verticalAlign=middle;whiteSpace=wrap;rounded=0;" parent="1" vertex="1">
          <mxGeometry x="80" y="170" width="115" height="20" as="geometry" />
        </mxCell>
        <mxCell id="mzTV1rFWOFSmvylBfMz7-31" value="Dispara" style="text;html=1;align=center;verticalAlign=middle;whiteSpace=wrap;rounded=0;" parent="1" vertex="1">
          <mxGeometry x="230" y="125" width="60" height="30" as="geometry" />
        </mxCell>
        <mxCell id="mzTV1rFWOFSmvylBfMz7-32" value="&lt;font style=&quot;font-size: 7px;&quot;&gt;1:N&lt;/font&gt;" style="text;html=1;align=center;verticalAlign=middle;whiteSpace=wrap;rounded=0;" parent="1" vertex="1">
          <mxGeometry x="275" y="150" width="60" height="30" as="geometry" />
        </mxCell>
        <mxCell id="mzTV1rFWOFSmvylBfMz7-33" value="&lt;font style=&quot;font-size: 7px;&quot;&gt;1:N&lt;/font&gt;" style="text;html=1;align=center;verticalAlign=middle;whiteSpace=wrap;rounded=0;" parent="1" vertex="1">
          <mxGeometry x="184" y="150" width="60" height="30" as="geometry" />
        </mxCell>
        <mxCell id="mzTV1rFWOFSmvylBfMz7-36" value="" style="endArrow=none;html=1;rounded=0;entryX=0.5;entryY=1;entryDx=0;entryDy=0;exitX=0.75;exitY=1;exitDx=0;exitDy=0;" parent="1" source="mzTV1rFWOFSmvylBfMz7-39" target="mzTV1rFWOFSmvylBfMz7-1" edge="1">
          <mxGeometry width="50" height="50" relative="1" as="geometry">
            <mxPoint x="100" y="280" as="sourcePoint" />
            <mxPoint x="150" y="230" as="targetPoint" />
          </mxGeometry>
        </mxCell>
        <mxCell id="mzTV1rFWOFSmvylBfMz7-37" value="Coge" style="text;html=1;align=center;verticalAlign=middle;whiteSpace=wrap;rounded=0;rotation=-90;" parent="1" vertex="1">
          <mxGeometry x="129" y="290" width="60" height="30" as="geometry" />
        </mxCell>
        <mxCell id="mzTV1rFWOFSmvylBfMz7-38" value="0:1" style="text;html=1;align=center;verticalAlign=middle;whiteSpace=wrap;rounded=0;" parent="1" vertex="1">
          <mxGeometry x="94" y="230" width="60" height="30" as="geometry" />
        </mxCell>
        <mxCell id="mzTV1rFWOFSmvylBfMz7-40" value="" style="endArrow=none;html=1;rounded=0;exitX=0.5;exitY=0;exitDx=0;exitDy=0;entryX=0.5;entryY=1;entryDx=0;entryDy=0;" parent="1" source="mzTV1rFWOFSmvylBfMz7-19" edge="1">
          <mxGeometry width="50" height="50" relative="1" as="geometry">
            <mxPoint x="113.5" y="360" as="sourcePoint" />
            <mxPoint x="98.5" y="360" as="targetPoint" />
          </mxGeometry>
        </mxCell>
        <mxCell id="mzTV1rFWOFSmvylBfMz7-39" value="0:1" style="text;html=1;align=center;verticalAlign=middle;whiteSpace=wrap;rounded=0;" parent="1" vertex="1">
          <mxGeometry x="94" y="330" width="60" height="30" as="geometry" />
        </mxCell>
        <mxCell id="mzTV1rFWOFSmvylBfMz7-44" value="&lt;span style=&quot;font-size: 8px;&quot;&gt;+ObtenerEstaCogido(): bool&lt;/span&gt;&lt;div&gt;&lt;span style=&quot;font-size: 8px;&quot;&gt;+ObtenerPersonajeQueCogio(): Personaje&lt;/span&gt;&lt;/div&gt;" style="text;html=1;align=center;verticalAlign=middle;whiteSpace=wrap;rounded=0;" parent="1" vertex="1">
          <mxGeometry x="43.5" y="440" width="161" height="20" as="geometry" />
        </mxCell>
        <mxCell id="ECPVnl5YzM9LcdXUfcxE-2" value="" style="rounded=0;whiteSpace=wrap;html=1;" vertex="1" parent="1">
          <mxGeometry x="245" y="360" width="160" height="150" as="geometry" />
        </mxCell>
        <mxCell id="ECPVnl5YzM9LcdXUfcxE-3" value="" style="endArrow=none;html=1;rounded=0;exitX=-0.001;exitY=0.136;exitDx=0;exitDy=0;exitPerimeter=0;" edge="1" parent="1" source="ECPVnl5YzM9LcdXUfcxE-2">
          <mxGeometry width="50" height="50" relative="1" as="geometry">
            <mxPoint x="254" y="380.1" as="sourcePoint" />
            <mxPoint x="405" y="380" as="targetPoint" />
          </mxGeometry>
        </mxCell>
        <mxCell id="ECPVnl5YzM9LcdXUfcxE-4" value="" style="endArrow=none;html=1;rounded=0;entryX=1;entryY=0.5;entryDx=0;entryDy=0;exitX=0;exitY=0.5;exitDx=0;exitDy=0;" edge="1" parent="1" source="ECPVnl5YzM9LcdXUfcxE-2" target="ECPVnl5YzM9LcdXUfcxE-2">
          <mxGeometry width="50" height="50" relative="1" as="geometry">
            <mxPoint x="255" y="434.8" as="sourcePoint" />
            <mxPoint x="375" y="434.8" as="targetPoint" />
          </mxGeometry>
        </mxCell>
        <mxCell id="ECPVnl5YzM9LcdXUfcxE-10" style="edgeStyle=orthogonalEdgeStyle;rounded=0;orthogonalLoop=1;jettySize=auto;html=1;exitX=0.75;exitY=0;exitDx=0;exitDy=0;entryX=0.5;entryY=1;entryDx=0;entryDy=0;fillColor=#dae8fc;strokeColor=#6c8ebf;" edge="1" parent="1" source="ECPVnl5YzM9LcdXUfcxE-5" target="mzTV1rFWOFSmvylBfMz7-5">
          <mxGeometry relative="1" as="geometry" />
        </mxCell>
        <mxCell id="ECPVnl5YzM9LcdXUfcxE-11" style="edgeStyle=orthogonalEdgeStyle;rounded=0;orthogonalLoop=1;jettySize=auto;html=1;exitX=0.75;exitY=0;exitDx=0;exitDy=0;entryX=0.75;entryY=1;entryDx=0;entryDy=0;fillColor=#dae8fc;strokeColor=#6c8ebf;" edge="1" parent="1" source="ECPVnl5YzM9LcdXUfcxE-5" target="mzTV1rFWOFSmvylBfMz7-1">
          <mxGeometry relative="1" as="geometry" />
        </mxCell>
        <mxCell id="ECPVnl5YzM9LcdXUfcxE-5" value="&lt;font style=&quot;font-size: 8px;&quot;&gt;Caracter&lt;/font&gt;" style="text;html=1;align=center;verticalAlign=middle;whiteSpace=wrap;rounded=0;" vertex="1" parent="1">
          <mxGeometry x="290" y="360" width="60" height="20" as="geometry" />
        </mxCell>
        <mxCell id="ECPVnl5YzM9LcdXUfcxE-6" value="&lt;span style=&quot;font-size: 8px;&quot;&gt;- nivelEnergia: int&lt;/span&gt;&lt;div&gt;&lt;span style=&quot;font-size: 8px;&quot;&gt;- nivelAtaque: int&lt;/span&gt;&lt;/div&gt;" style="text;html=1;align=center;verticalAlign=middle;whiteSpace=wrap;rounded=0;" vertex="1" parent="1">
          <mxGeometry x="274.5" y="390" width="100" height="20" as="geometry" />
        </mxCell>
        <mxCell id="ECPVnl5YzM9LcdXUfcxE-7" value="" style="endArrow=none;html=1;rounded=0;exitX=0.5;exitY=0;exitDx=0;exitDy=0;entryX=0.5;entryY=1;entryDx=0;entryDy=0;" edge="1" parent="1" source="ECPVnl5YzM9LcdXUfcxE-5">
          <mxGeometry width="50" height="50" relative="1" as="geometry">
            <mxPoint x="314" y="360" as="sourcePoint" />
            <mxPoint x="299" y="360" as="targetPoint" />
          </mxGeometry>
        </mxCell>
        <mxCell id="ECPVnl5YzM9LcdXUfcxE-15" value="" style="rounded=0;whiteSpace=wrap;html=1;" vertex="1" parent="1">
          <mxGeometry x="520" y="80" width="120" height="70" as="geometry" />
        </mxCell>
        <mxCell id="ECPVnl5YzM9LcdXUfcxE-16" value="" style="endArrow=none;html=1;rounded=0;entryX=0.999;entryY=0.266;entryDx=0;entryDy=0;entryPerimeter=0;" edge="1" parent="1">
          <mxGeometry width="50" height="50" relative="1" as="geometry">
            <mxPoint x="520" y="100.1" as="sourcePoint" />
            <mxPoint x="639.88" y="99.99999999999997" as="targetPoint" />
          </mxGeometry>
        </mxCell>
        <mxCell id="ECPVnl5YzM9LcdXUfcxE-17" value="" style="endArrow=none;html=1;rounded=0;entryX=0.999;entryY=0.266;entryDx=0;entryDy=0;entryPerimeter=0;" edge="1" parent="1">
          <mxGeometry width="50" height="50" relative="1" as="geometry">
            <mxPoint x="520" y="125" as="sourcePoint" />
            <mxPoint x="640" y="125" as="targetPoint" />
          </mxGeometry>
        </mxCell>
        <mxCell id="ECPVnl5YzM9LcdXUfcxE-25" style="edgeStyle=orthogonalEdgeStyle;rounded=0;orthogonalLoop=1;jettySize=auto;html=1;exitX=0;exitY=0;exitDx=0;exitDy=0;entryX=0.5;entryY=0;entryDx=0;entryDy=0;fillColor=#dae8fc;strokeColor=#6c8ebf;" edge="1" parent="1" source="ECPVnl5YzM9LcdXUfcxE-18" target="mzTV1rFWOFSmvylBfMz7-8">
          <mxGeometry relative="1" as="geometry" />
        </mxCell>
        <mxCell id="ECPVnl5YzM9LcdXUfcxE-18" value="&lt;font style=&quot;font-size: 8px;&quot;&gt;EnemigoHerido&lt;/font&gt;" style="text;html=1;align=center;verticalAlign=middle;whiteSpace=wrap;rounded=0;" vertex="1" parent="1">
          <mxGeometry x="550" y="80" width="60" height="20" as="geometry" />
        </mxCell>
        <mxCell id="ECPVnl5YzM9LcdXUfcxE-19" value="- estaHerido: bool" style="text;html=1;align=center;verticalAlign=middle;whiteSpace=wrap;rounded=0;" vertex="1" parent="1">
          <mxGeometry x="530" y="100" width="100" height="30" as="geometry" />
        </mxCell>
        <mxCell id="ECPVnl5YzM9LcdXUfcxE-20" value="+ Transformacion(): void" style="text;html=1;align=center;verticalAlign=middle;whiteSpace=wrap;rounded=0;fontSize=10;" vertex="1" parent="1">
          <mxGeometry x="517.5" y="125" width="125" height="30" as="geometry" />
        </mxCell>
        <mxCell id="ECPVnl5YzM9LcdXUfcxE-24" style="edgeStyle=orthogonalEdgeStyle;rounded=0;orthogonalLoop=1;jettySize=auto;html=1;exitX=0;exitY=0.25;exitDx=0;exitDy=0;entryX=0.992;entryY=0.113;entryDx=0;entryDy=0;entryPerimeter=0;" edge="1" parent="1" source="ECPVnl5YzM9LcdXUfcxE-15" target="mzTV1rFWOFSmvylBfMz7-5">
          <mxGeometry relative="1" as="geometry" />
        </mxCell>
        <mxCell id="ECPVnl5YzM9LcdXUfcxE-26" value="Es" style="text;html=1;align=center;verticalAlign=middle;whiteSpace=wrap;rounded=0;" vertex="1" parent="1">
          <mxGeometry x="450" y="75" width="60" height="30" as="geometry" />
        </mxCell>
        <mxCell id="ECPVnl5YzM9LcdXUfcxE-27" value="&lt;font style=&quot;font-size: 5px;&quot;&gt;1:1&lt;/font&gt;" style="text;html=1;align=center;verticalAlign=middle;whiteSpace=wrap;rounded=0;" vertex="1" parent="1">
          <mxGeometry x="420" y="95" width="60" height="30" as="geometry" />
        </mxCell>
        <mxCell id="ECPVnl5YzM9LcdXUfcxE-28" value="&lt;font style=&quot;font-size: 5px;&quot;&gt;0:1&lt;/font&gt;" style="text;html=1;align=center;verticalAlign=middle;whiteSpace=wrap;rounded=0;" vertex="1" parent="1">
          <mxGeometry x="480" y="95" width="60" height="30" as="geometry" />
        </mxCell>
      </root>
    </mxGraphModel>
  </diagram>
</mxfile>
